PathFileType	4	(X/Y/Z)	Patient4_TMGait_0pt4_03_right_39.trc.trc
DataRate	CameraRate	NumFrames	NumMarkers	Units	OrigDataRate	OrigDataStartFrame	OrigNumFrames
75.268817204301	75.268817204301	5	33	mm	75.268817204301	18	       141
Frame#	Time	Sacral			L.Shoulder			Chest			R.Shoulder			Neck			R.ASIS			L.ASIS			R.Thigh.Superior			R.Thigh.Lateral			R.Thigh.Inferior			R.Patella			L.Thigh.Superior			L.Thigh.Lateral			L.Thigh.Inferior			L.Patella			L.Shank.Superior			L.Shank.Lateral			L.Shank.Inferior			R.Shank.Superior			R.Shank.Lateral			R.Shank.Inferior			R.Heel			R.Midfoot.Superior			R.Midfoot.Lateral			R.Toe			L.Heel			L.Midfoot.Lateral			L.Midfoot.Superior			L.Toe			L.Elbow			L.Wrist			R.Elbow			R.Wrist			
		X1	Y1	Z1	X2	Y2	Z2	X3	Y3	Z3	X4	Y4	Z4	X5	Y5	Z5	X6	Y6	Z6	X7	Y7	Z7	X8	Y8	Z8	X9	Y9	Z9	X10	Y10	Z10	X11	Y11	Z11	X12	Y12	Z12	X13	Y13	Z13	X14	Y14	Z14	X15	Y15	Z15	X16	Y16	Z16	X17	Y17	Z17	X18	Y18	Z18	X19	Y19	Z19	X20	Y20	Z20	X21	Y21	Z21	X22	Y22	Z22	X23	Y23	Z23	X24	Y24	Z24	X25	Y25	Z25	X26	Y26	Z26	X27	Y27	Z27	X28	Y28	Z28	X29	Y29	Z29	X30	Y30	Z30	X31	Y31	Z31	X32	Y32	Z32	X33	Y33	Z33	

18	51.275857142857	874.593698772688	1008.292750281928	431.231761669557	1066.183216351630	1433.408273873792	249.083315123527	1153.476178043399	1371.657641099853	421.096463370270	1053.874677922422	1447.362182271664	585.593925160466	1029.591732736603	1499.326828337617	404.915209944326	1098.021065757387	949.169692868889	563.843993916627	1098.816356265397	965.838012932961	288.395822725803	1166.019917498615	767.493822207858	537.792392459771	1119.005946687860	650.710318906283	616.699155774583	1202.755422403448	604.828584742221	535.684708914323	1231.968019955903	519.754509297435	556.088552229161	1112.194613972162	740.101386044028	316.764586931936	1002.265887220195	639.144520675699	251.116303723502	1068.234161709682	550.213653057819	315.143480798645	1057.049703390257	485.575186995689	324.096704252220	1029.791586869133	417.482622576918	316.044181887139	936.413133124151	305.100818113201	265.402894222544	986.395078059089	193.640986009990	339.240434806832	1207.723123682085	434.162226854983	570.143358325537	1146.487429162174	329.628173291688	641.637050823571	1203.743711733308	234.681914254476	591.132417069936	1092.439237656843	57.438967963963	575.831851404650	1263.309187753828	116.006227621544	606.469397794787	1179.305250213806	50.079403599213	646.365287826584	1384.524697871164	67.794311966971	629.337131523659	857.130604168560	39.286561143471	387.551748644652	928.772248788679	34.877885244154	304.758494194822	1013.053701025646	96.066462194338	329.864924161254	1140.800612536085	43.491653633478	298.524030310418	1117.142507113871	1098.983173608890	101.033628284051	1356.474056889594	997.220099819587	87.565203975959	912.537944301284	1133.394177408691	697.124827328275	880.333223572533	873.496563984547	698.534488030832	
19	51.289142857143	875.558174906106	1007.153859011556	432.600111657427	1066.629075373831	1432.618611304727	251.339511673750	1153.760961484644	1370.906223723171	423.439509567289	1053.897109816416	1446.432939732273	587.845660796094	1029.710796746474	1498.380042862597	407.124854287677	1098.650121952275	947.630396635513	565.599945468719	1100.025112519299	965.287837092863	290.130900322400	1164.438989496106	763.938434806688	540.111661463635	1114.973389868500	647.626838235034	618.200743556233	1198.638657204806	601.202638875602	537.272871646153	1227.150542213548	517.671371177577	556.799442514862	1111.272044663400	738.983625543552	318.074326426967	1000.358620404271	639.129505099286	251.869864101701	1065.103876461855	549.541095139041	315.934620764371	1053.400078938793	484.994174769604	324.556199475204	1025.728067419277	417.263497269108	316.453405507427	931.837206796301	305.349776201140	265.647522972560	981.404556928373	193.550691855300	339.296827049457	1205.301778656020	432.165866062229	570.670779511854	1146.528691063483	325.506815594884	641.196171643359	1206.955607851032	232.381446966482	590.507371383443	1100.707427054450	52.390163746137	574.040060060675	1270.314357149786	114.625113584567	605.126809752719	1187.685720249094	46.686224127345	644.517363261101	1392.611743552741	68.877517603490	627.507728594157	851.777810553322	39.346682837276	387.490715622944	923.395871037967	34.873079970047	304.715725746004	1007.700897671903	96.052634794671	329.834290533077	1135.410114216022	43.461096945245	298.530884659527	1117.372897531153	1098.316548464826	103.011764344212	1358.053655900580	1000.440661045773	89.591263983822	909.103150927414	1134.328906574978	698.315641362376	873.515331923808	874.727149146612	699.118423704788	
20	51.302428571429	876.670007020287	1005.873673402277	434.247995313016	1066.902291710003	1431.776429376727	253.772501471655	1153.994310429800	1370.178984825239	425.931074332990	1053.848525645311	1445.430581570360	590.289011291637	1029.723738620669	1497.372190194004	409.528295205891	1099.477154209308	946.050652816198	567.490243275028	1101.331578979204	964.706227444542	292.052616620138	1163.446867903084	760.572901346887	542.552005892334	1111.472598615998	644.556853194327	619.479896351475	1195.247648677048	597.863640901570	538.786097695732	1222.875996556208	515.526170908683	557.368122625484	1110.593848507983	737.842522244711	319.492003510662	998.772905427150	639.069454433117	252.819589364644	1062.390945093424	548.836177708520	316.857138741759	1050.221485869399	484.329132324717	325.165242787003	1022.038117635080	416.959924772255	316.997599724786	927.509196965375	305.633298898677	266.006634606516	976.531133875980	193.402015892384	339.386519083928	1202.821235294444	429.931919756559	570.945254704924	1145.634828256798	321.702299195519	640.354912050157	1208.412155887155	230.042716533288	589.520447081641	1105.770075483594	48.496365011502	571.891256098769	1274.384368398272	113.001700022579	603.271691973290	1192.737651180740	43.929098142644	642.368077405681	1397.408083155719	69.002205704180	625.381566274502	846.428801639876	39.401221673488	387.423034161042	918.026869618797	34.872049514957	304.673286416403	1002.349795181467	96.032760136620	329.821224914036	1130.026602460580	43.406337274327	298.539695660513	1117.355388436987	1097.487716958700	105.289449256157	1359.028241447099	1002.662426033073	91.816933503083	906.722615071553	1134.660728814425	699.891676890036	868.711452073975	875.242492192032	700.131892264983	
21	51.315714285714	877.911542661776	1004.497757650274	436.167363614253	1067.036389809875	1430.903223639657	256.385529993954	1154.193575301346	1369.493962946404	428.582369876736	1053.734637774023	1444.382888291939	592.924609825122	1029.651440882635	1496.330516245460	412.122683888485	1100.484927785499	944.471209740237	569.519922425109	1102.714575935235	964.110034959715	294.159342616247	1163.098856477133	757.499142380188	545.070687444666	1108.589634402374	641.588426635914	620.499213885126	1192.697116383806	594.920474743797	540.209164436060	1219.273647066405	513.400959148537	557.746240550263	1110.179962800625	736.699530212384	320.996275086462	997.507812091484	638.964254351903	253.975718953781	1060.112830199076	548.095694634637	317.910496457940	1047.544481059018	483.570187069879	325.935204545014	1018.744847610395	416.557561559554	317.687424364663	923.441909938770	305.946689123129	266.497797479569	971.780325245173	193.186899984874	339.522031500847	1200.443209413157	427.526931022608	570.962593775899	1144.048251353318	318.246697692841	639.242264345913	1208.321673852637	227.643168292646	588.252538721821	1107.786097446871	45.639709253854	569.606525401787	1275.738805919573	111.092394294091	601.039569403993	1194.674401009749	41.747436338857	640.118493159142	1399.184243632970	68.138476236704	623.079915452470	841.080484513802	39.438120402226	387.348830835803	912.665741682174	34.869033343988	304.633948715085	997.000259323544	96.009135943468	329.828486774655	1124.654236030352	43.326292585220	298.548793672794	1117.074673209225	1096.514043859083	107.861125634663	1359.414424048051	1003.868501571743	94.232765207029	905.375268427150	1134.381878720930	701.853853716902	865.936422437834	875.024694753848	701.616379378282	
22	51.329000000000	879.255871517082	1003.081652383325	438.339425898639	1067.072882348208	1430.027064671694	259.180262384369	1154.380895189982	1368.867644269004	431.401213986816	1053.573247806616	1443.320868456374	595.751140752603	1029.522681385452	1495.287773322419	414.903849601054	1101.648559419763	942.938293809331	571.692325087849	1104.151920841514	963.520413016627	296.443066959795	1163.406165046652	754.798975574938	547.621694509765	1106.390275348198	638.818435394885	621.265841457342	1191.045521985290	592.456134224861	541.534946091235	1216.424867236854	511.374205521795	557.912669018356	1110.042664993126	735.583123503745	322.567403159808	996.553606990655	638.815522449180	255.342733206422	1058.279016787760	547.320948069595	319.090544422936	1045.390329529032	482.709235849321	326.868490271436	1015.863890681647	416.045502730623	318.528044691225	919.641764732811	306.286964466343	267.135690780970	967.153051540953	192.900795314812	339.715004094295	1198.319286250685	425.042068306737	570.755594377233	1142.059101206275	315.178504313037	638.022856090778	1206.981004451640	225.205055229880	586.812674428434	1107.112965531410	43.680575998007	567.405055434613	1274.749087675798	108.935672671732	598.601261297316	1193.899100991922	40.083490517124	637.967460390758	1398.373247838224	66.393689070062	620.743362245101	835.728089798752	39.449749643566	387.268580865758	907.312611131515	34.857914514446	304.601110768125	991.653822351759	95.984106733254	329.856766775324	1119.298310188234	43.219922157407	298.555688064142	1116.517522471198	1095.420182884435	110.721411751184	1359.221132776194	1004.054708020791	96.832426532439	905.031891205506	1133.513229510827	704.194750374878	865.183923751555	874.093138966304	703.598272026642	
